<svg xmlns="http://www.w3.org/2000/svg" width="30.425" height="29.98" viewBox="0 0 30.425 29.98"><defs><style>.a{fill:#d5714f;}.b{fill:#fcf3dc;}</style></defs><path class="a" d="M30.425,14.99A15.1,15.1,0,0,0,15.212,0,15.1,15.1,0,0,0,0,14.99,15.062,15.062,0,0,0,12.836,29.8V19.324H8.973V14.99h3.863v-3.3c0-3.756,2.27-5.831,5.745-5.831a23.8,23.8,0,0,1,3.406.292v3.69H20.069a2.182,2.182,0,0,0-2.479,2.34V14.99h4.219l-.675,4.333H17.589V29.8A15.063,15.063,0,0,0,30.425,14.99"/><path class="b" d="M12.16,13.468l.674-4.333H8.617V6.323A2.182,2.182,0,0,1,11.1,3.982h1.918V.293A23.711,23.711,0,0,0,9.608,0C6.133,0,3.862,2.076,3.862,5.832v3.3H0v4.333H3.862V23.942a15.577,15.577,0,0,0,4.755,0V13.468Z" transform="translate(8.973 5.855)"/></svg>