<svg xmlns="http://www.w3.org/2000/svg" xmlns:xlink="http://www.w3.org/1999/xlink" width="30.424" height="29.979" viewBox="0 0 30.424 29.979"><defs><style>.a{fill:none;}.b{clip-path:url(#a);}.c{fill:#1f0812;}.d{fill:#fcf3dc;}</style><clipPath id="a"><path class="a" d="M0,0H30.424V29.979H0Z"/></clipPath></defs><path class="a" d="M0,0H30.424V29.979H0Z"/><g class="b"><path class="c" d="M30.424,14.989a15.1,15.1,0,0,1-15.212,14.99A15.1,15.1,0,0,1,0,14.989,15.1,15.1,0,0,1,15.212,0,15.1,15.1,0,0,1,30.424,14.989"/></g><path class="d" d="M1.046,0A1.038,1.038,0,0,0,0,1.03a1.038,1.038,0,0,0,1.046,1.03A1.038,1.038,0,0,0,2.092,1.03,1.038,1.038,0,0,0,1.046,0" transform="translate(18.888 9.319)"/><path class="d" d="M4.393,8.657A4.367,4.367,0,0,1,0,4.327,4.365,4.365,0,0,1,4.393,0,4.365,4.365,0,0,1,8.785,4.327,4.366,4.366,0,0,1,4.393,8.657Zm0-7.1A2.8,2.8,0,0,0,1.58,4.327a2.814,2.814,0,0,0,5.627,0A2.8,2.8,0,0,0,4.393,1.555Z" transform="translate(10.892 10.641)"/><path class="d" d="M12.479,17.576H5.357A5.325,5.325,0,0,1,0,12.3V5.279A5.325,5.325,0,0,1,5.357,0h7.122a5.325,5.325,0,0,1,5.358,5.279V12.3A5.325,5.325,0,0,1,12.479,17.576ZM5.357,1.653A3.657,3.657,0,0,0,1.679,5.279V12.3a3.657,3.657,0,0,0,3.678,3.626h7.122a3.658,3.658,0,0,0,3.68-3.626V5.279a3.658,3.658,0,0,0-3.68-3.626Z" transform="translate(6.294 6.18)"/></svg>