<svg xmlns="http://www.w3.org/2000/svg" xmlns:xlink="http://www.w3.org/1999/xlink" width="30.424" height="29.979" viewBox="0 0 30.424 29.979"><defs><style>.a{fill:none;}.b{clip-path:url(#a);}.c{fill:#d5714f;}.d{clip-path:url(#b);}.e{fill:#fcf3dc;}</style><clipPath id="a"><path class="a" d="M0,0H30.424V29.979H0Z"/></clipPath><clipPath id="b"><path class="a" d="M0,0H18V7.385H0Z"/></clipPath></defs><path class="a" d="M0,0H30.424V29.979H0Z"/><g class="b"><path class="c" d="M30.424,14.989a15.1,15.1,0,0,1-15.212,14.99A15.1,15.1,0,0,1,0,14.989,15.1,15.1,0,0,1,15.212,0,15.1,15.1,0,0,1,30.424,14.989"/></g><g transform="translate(6 9)"><path class="a" d="M0,0H18V7.385H0Z"/><g class="d"><path class="e" d="M18,2.123V.585A.6.6,0,0,0,17.394,0H.606A.6.6,0,0,0,0,.585V2.122L9.065,7.385Z" transform="translate(0)"/></g><path class="e" d="M.606,8.308H17.394A.6.6,0,0,0,18,7.72V.006L9.324,5.146a.5.5,0,0,1-.509,0L0,0V7.72a.6.6,0,0,0,.606.588" transform="translate(0 3.692)"/></g></svg>