<svg xmlns="http://www.w3.org/2000/svg" xmlns:xlink="http://www.w3.org/1999/xlink" width="30.424" height="29.979" viewBox="0 0 30.424 29.979"><defs><style>.a{fill:none;}.b{clip-path:url(#a);}.c{fill:#fcf3dc;}.d{fill:#1f0812;}</style><clipPath id="a"><path class="a" d="M0,0H30.424V29.979H0Z"/></clipPath></defs><path class="a" d="M0,0H30.424V29.979H0Z"/><g class="b"><path class="c" d="M30.424,14.989a15.1,15.1,0,0,1-15.212,14.99A15.1,15.1,0,0,1,0,14.989,15.1,15.1,0,0,1,15.212,0,15.1,15.1,0,0,1,30.424,14.989"/></g><path class="d" d="M16.292,7.591c-.155.014-.312.023-.468.023a5.1,5.1,0,0,1-4.253-2.265v7.713a5.743,5.743,0,0,1-5.786,5.7,5.7,5.7,0,1,1,0-11.4c.122,0,.239.011.358.018v2.809a3.156,3.156,0,0,0-.358-.035,2.909,2.909,0,1,0,0,5.818A3.006,3.006,0,0,0,8.857,13.1L8.885,0h2.727a5.048,5.048,0,0,0,4.682,4.47V7.591" transform="translate(6.82 5.671)"/></svg>