<svg xmlns="http://www.w3.org/2000/svg" xmlns:xlink="http://www.w3.org/1999/xlink" width="30.425" height="29.979" viewBox="0 0 30.425 29.979"><defs><style>.a{fill:none;}.b{clip-path:url(#a);}.c{fill:#d5714f;}.d{fill:#fcf3dc;}</style><clipPath id="a"><path class="a" d="M0,0H30.425V29.979H0Z"/></clipPath></defs><path class="a" d="M0,0H30.425V29.979H0Z"/><g class="b"><path class="c" d="M30.425,14.989a15.1,15.1,0,0,1-15.212,14.99A15.1,15.1,0,0,1,0,14.989,15.1,15.1,0,0,1,15.213,0,15.1,15.1,0,0,1,30.425,14.989"/></g><path class="d" d="M16.523,1.613a6.935,6.935,0,0,1-1.677.472c.268-.045.665-.526.825-.721a3.066,3.066,0,0,0,.557-1c.014-.029.025-.065,0-.086a.1.1,0,0,0-.088.007,8.647,8.647,0,0,1-1.989.75A.136.136,0,0,1,14.007,1a1.474,1.474,0,0,0-.174-.175A3.532,3.532,0,0,0,12.87.241,3.385,3.385,0,0,0,11.392.007,3.561,3.561,0,0,0,9.99.4a3.6,3.6,0,0,0-1.131.91A3.406,3.406,0,0,0,8.183,2.64a3.563,3.563,0,0,0-.035,1.408c.01.079,0,.09-.069.079A10.679,10.679,0,0,1,1.242.7C1.163.609,1.12.609,1.055.705a3.376,3.376,0,0,0,.59,4.035c.134.125.273.25.42.365A3.536,3.536,0,0,1,.746,4.741C.667,4.691.627,4.72.62,4.809a1.962,1.962,0,0,0,.021.385A3.463,3.463,0,0,0,2.8,7.948a2.147,2.147,0,0,0,.437.132,3.982,3.982,0,0,1-1.293.039c-.095-.017-.13.029-.095.118a3.632,3.632,0,0,0,2.72,2.243c.123.021.246.021.369.049-.007.011-.015.011-.022.022a4.315,4.315,0,0,1-1.856.97,6.738,6.738,0,0,1-2.82.356c-.152-.023-.183-.021-.225,0s-.005.06.044.1c.191.125.388.236.587.343a9.417,9.417,0,0,0,1.885.742,10.144,10.144,0,0,0,9.745-2.245,9.986,9.986,0,0,0,2.7-7.351c0-.106.126-.164.2-.22A6.538,6.538,0,0,0,16.5,1.887a.413.413,0,0,0,.087-.26V1.613c0-.043,0-.03-.068,0" transform="translate(7.095 8.241)"/></svg>